<?xml version="1.0" standalone="no"?>
<!DOCTYPE svg PUBLIC "-//W3C//DTD SVG 20010904//EN"
 "http://www.w3.org/TR/2001/REC-SVG-20010904/DTD/svg10.dtd">
<svg version="1.0" xmlns="http://www.w3.org/2000/svg"
 width="612.000000pt" height="612.000000pt" viewBox="0 0 612.000000 612.000000"
 preserveAspectRatio="xMidYMid meet">

<g transform="translate(0.000000,612.000000) scale(0.100000,-0.100000)"
fill="#000000" stroke="none">
<path d="M4047 4520 c49 -82 62 -116 74 -181 52 -291 -212 -533 -741 -677 -41
-12 -138 -35 -215 -53 -360 -81 -630 -211 -830 -401 -143 -136 -224 -261 -261
-408 -24 -97 -16 -271 19 -368 71 -203 206 -361 512 -603 156 -124 430 -309
456 -309 16 0 249 156 376 251 354 267 669 584 884 889 107 151 131 191 200
329 79 160 133 312 165 469 23 113 25 143 21 277 -6 172 -24 249 -90 380 -75
150 -205 289 -347 370 -8 5 11 -19 43 -54 245 -266 308 -587 186 -952 -210
-632 -950 -1297 -1639 -1474 -228 -59 -310 -46 -310 48 0 32 6 46 35 72 19 19
49 36 67 40 55 12 239 84 344 135 234 113 404 260 506 440 82 145 71 261 -27
286 -36 9 -55 -16 -130 -165 -54 -107 -79 -145 -126 -191 -100 -99 -201 -129
-254 -75 -36 35 -32 74 10 127 123 153 152 203 217 378 119 318 201 407 465
499 269 94 457 231 534 386 45 91 52 210 20 308 -26 76 -83 166 -143 222 l-41
40 20 -35z"/>
<path d="M1629 4298 c-12 -23 -12 -23 10 -4 23 21 26 26 11 26 -5 0 -15 -10
-21 -22z"/>
<path d="M1541 4175 c-29 -46 -50 -88 -47 -94 3 -5 3 -11 -2 -13 -16 -7 -51
-106 -67 -193 -19 -98 -16 -270 6 -395 13 -77 57 -228 93 -324 61 -160 231
-451 354 -603 l50 -63 -5 123 c-5 102 -2 136 16 212 26 108 92 246 160 335 75
100 219 233 321 299 l60 39 -45 7 c-49 7 -130 39 -140 55 -3 6 -11 10 -17 10
-6 0 -8 -3 -5 -6 7 -7 -35 -44 -50 -44 -4 0 -26 -16 -47 -36 -23 -20 -47 -34
-57 -31 -12 3 -15 0 -12 -14 6 -21 -12 -26 -21 -6 -3 6 -4 1 -3 -12 2 -19 -3
-24 -28 -26 -30 -2 -30 -2 -26 41 2 35 0 44 -13 44 -12 0 -16 10 -16 40 0 36
-2 40 -25 40 -22 0 -25 4 -25 40 l0 40 -40 0 -40 0 0 40 c0 29 -4 40 -15 40
-11 0 -15 11 -15 40 l0 40 -40 0 -40 0 0 40 c0 36 -2 40 -25 40 -22 0 -25 4
-25 40 0 38 -2 40 -30 40 -28 0 -30 2 -30 40 0 36 -3 40 -24 40 -22 0 -25 5
-28 43 -2 34 -6 41 -21 39 -17 -3 -16 0 3 38 29 57 20 60 -10 5 -25 -46 -40
-57 -40 -30 0 8 5 15 10 15 6 0 10 5 10 10 0 6 12 28 26 50 15 22 25 42 23 45
-3 2 -29 -34 -58 -80z m-23 -100 c-3 -3 -9 2 -12 12 -6 14 -5 15 5 6 7 -7 10
-15 7 -18z"/>
<path d="M2922 3806 c1 -29 4 -43 9 -35 4 8 4 30 -1 49 -7 33 -8 33 -8 -14z"/>
<path d="M2902 3785 c0 -16 2 -22 5 -12 2 9 2 23 0 30 -3 6 -5 -1 -5 -18z"/>
<path d="M3108 3783 c6 -2 18 -2 25 0 6 3 1 5 -13 5 -14 0 -19 -2 -12 -5z"/>
<path d="M3148 3763 c7 -3 16 -2 19 1 4 3 -2 6 -13 5 -11 0 -14 -3 -6 -6z"/>
<path d="M2879 3740 c-1 -5 -2 -18 -3 -27 0 -10 -9 -21 -20 -26 -10 -4 -17 -9
-15 -12 5 -5 130 33 139 42 3 3 -5 2 -17 -1 -12 -4 -33 -2 -45 5 -21 11 -22
11 -9 -4 12 -15 11 -17 -6 -17 -16 0 -19 5 -15 25 2 14 2 25 -2 25 -3 0 -7 -4
-7 -10z"/>
<path d="M2205 3610 c3 -5 8 -10 11 -10 2 0 4 5 4 10 0 6 -5 10 -11 10 -5 0
-7 -4 -4 -10z"/>
</g>
</svg>
